<svg xmlns="http://www.w3.org/2000/svg" xmlns:xlink="http://www.w3.org/1999/xlink" width="100%" height="100%" version="1.1" viewBox="0 0 5907 2199" xml:space="preserve" style="fill-rule:evenodd;clip-rule:evenodd;stroke-linejoin:round;stroke-miterlimit:2"><rect id="saol-non" width="5907" height="2199" x="0" y="0" style="fill:none"/><path d="M1537.17,1946.95c118.587,-0 229.343,-48.106 332.267,-144.318c102.924,-96.212 206.968,-230.462 312.13,-402.748l-26.85,-16.781c-71.6,105.162 -124.74,175.642 -159.421,211.442c-34.681,35.8 -64.328,53.7 -88.94,53.7c-38.038,-0 -57.056,-20.137 -57.056,-60.412c-0,-35.8 31.324,-117.468 93.974,-245.005l198.018,-409.46c91.737,-190.187 137.605,-337.861 137.605,-443.023c0,-76.075 -22.934,-135.368 -68.802,-177.88c-45.869,-42.513 -107.959,-63.769 -186.271,-63.769c-109.637,0 -209.205,41.394 -298.705,124.181c-89.5,82.787 -182.355,203.611 -278.567,362.473l-583.985,959.882l335.624,-815.564c71.599,-172.287 107.399,-299.824 107.399,-382.611c0,-78.312 -22.375,-139.283 -67.125,-182.914c-44.749,-43.631 -106.28,-65.447 -184.592,-65.447c-118.587,0 -229.902,48.106 -333.945,144.318c-104.044,96.212 -208.646,230.461 -313.808,402.748l26.85,16.781c71.599,-105.162 124.74,-175.643 159.421,-211.442c34.681,-35.8 64.327,-53.7 88.94,-53.7c38.037,-0 57.056,21.256 57.056,63.768c-0,42.513 -24.613,120.825 -73.837,234.936l-453.092,1074c35.8,-0 83.347,-1.678 142.64,-5.035c59.294,-3.356 102.365,-5.034 129.215,-5.034c26.85,0 72.159,1.678 135.928,5.034c63.768,3.357 113.552,5.035 149.352,5.035l708.165,-1161.26c87.262,-143.199 151.03,-214.798 191.305,-214.798c26.85,-0 40.275,17.899 40.275,53.699c-0,51.463 -41.394,161.099 -124.181,328.911l-187.949,385.967c-76.074,156.624 -114.112,287.517 -114.112,392.679c0,71.6 22.375,129.774 67.125,174.524c44.75,44.75 107.399,67.125 187.949,67.125Z" style="fill:#fff;fill-rule:nonzero"/><path d="M2718.56,1910.03c-55.937,0 -83.906,-42.512 -83.906,-127.537c-0,-98.449 39.715,-264.023 119.146,-496.722c79.431,-232.699 161.659,-440.785 246.683,-624.259c116.35,-248.361 217.037,-372.542 302.061,-372.542c55.937,-0 83.906,42.512 83.906,127.537c-0,98.449 -39.715,264.023 -119.146,496.722c-79.431,232.699 -161.659,440.785 -246.683,624.259c-116.35,248.361 -217.037,372.542 -302.061,372.542Zm93.974,40.275c178.999,-0 346.252,-56.497 501.757,-169.49c155.505,-112.993 275.77,-252.836 360.795,-419.529c85.024,-166.693 127.537,-333.945 127.537,-501.757c-0,-185.711 -53.7,-333.945 -161.099,-444.7c-107.4,-110.756 -251.718,-166.134 -432.954,-166.134c-178.999,0 -346.252,56.497 -501.757,169.49c-155.505,112.993 -275.77,252.836 -360.795,419.529c-85.025,166.693 -127.537,333.945 -127.537,501.757c0,185.711 53.7,333.945 161.099,444.7c107.4,110.756 251.718,166.134 432.954,166.134Z" style="fill:#fff;fill-rule:nonzero"/><path d="M4953.81,1946.95c118.587,-0 229.343,-48.106 332.267,-144.318c102.925,-96.212 206.968,-230.462 312.13,-402.748l-26.85,-16.781c-71.6,105.162 -124.74,175.642 -159.421,211.442c-34.681,35.8 -64.328,53.7 -88.94,53.7c-38.037,-0 -57.056,-20.137 -57.056,-60.412c-0,-35.8 31.325,-117.468 93.974,-245.005l198.018,-409.46c91.737,-190.187 137.606,-337.861 137.606,-443.023c-0,-76.075 -22.935,-135.368 -68.803,-177.88c-45.869,-42.513 -107.959,-63.769 -186.271,-63.769c-109.637,0 -209.205,41.394 -298.705,124.181c-89.499,82.787 -182.355,203.611 -278.567,362.473l-583.984,959.882l335.623,-815.564c71.6,-172.287 107.399,-299.824 107.399,-382.611c0,-78.312 -22.375,-139.283 -67.124,-182.914c-44.75,-43.631 -106.281,-65.447 -184.593,-65.447c-118.587,0 -229.902,48.106 -333.945,144.318c-104.043,96.212 -208.646,230.461 -313.808,402.748l26.85,16.781c71.6,-105.162 124.74,-175.643 159.421,-211.442c34.681,-35.8 64.328,-53.7 88.94,-53.7c38.037,-0 57.056,21.256 57.056,63.768c0,42.513 -24.612,120.825 -73.837,234.936l-453.091,1074c35.799,-0 83.346,-1.678 142.64,-5.035c59.293,-3.356 102.365,-5.034 129.214,-5.034c26.85,0 72.159,1.678 135.928,5.034c63.768,3.357 113.552,5.035 149.352,5.035l708.165,-1161.26c87.262,-143.199 151.031,-214.798 191.305,-214.798c26.85,-0 40.275,17.899 40.275,53.699c0,51.463 -41.393,161.099 -124.18,328.911l-187.949,385.967c-76.075,156.624 -114.112,287.517 -114.112,392.679c-0,71.6 22.375,129.774 67.124,174.524c44.75,44.75 107.4,67.125 187.949,67.125Z" style="fill:#fff;fill-rule:nonzero"/></svg>